<svg width="16" height="17" viewBox="0 0 16 17" fill="none" xmlns="http://www.w3.org/2000/svg">
    <path d="M8 11.1667C9.10457 11.1667 10 10.2712 10 9.16666C10 8.06209 9.10457 7.16666 8 7.16666C6.89543 7.16666 6 8.06209 6 9.16666C6 10.2712 6.89543 11.1667 8 11.1667Z"
          stroke="#828282" stroke-width="1.33333" stroke-linecap="round" stroke-linejoin="round"/>
    <path d="M2 7.54337C2 7.16046 2 6.96901 2.04935 6.7927C2.09307 6.63652 2.16491 6.48963 2.26135 6.35924C2.37022 6.21204 2.52135 6.0945 2.82359 5.85942L7.34513 2.34267C7.57935 2.1605 7.69646 2.06941 7.82577 2.0344C7.93987 2.00351 8.06013 2.00351 8.17423 2.0344C8.30354 2.06941 8.42065 2.1605 8.65487 2.34267L13.1764 5.85942C13.4787 6.0945 13.6298 6.21204 13.7386 6.35924C13.8351 6.48963 13.9069 6.63652 13.9506 6.7927C14 6.96901 14 7.16046 14 7.54337V12.3667C14 13.1134 14 13.4868 13.8547 13.772C13.7268 14.0229 13.5229 14.2268 13.272 14.3547C12.9868 14.5 12.6134 14.5 11.8667 14.5H4.13333C3.3866 14.5 3.01323 14.5 2.72801 14.3547C2.47713 14.2268 2.27316 14.0229 2.14532 13.772C2 13.4868 2 13.1134 2 12.3667V7.54337Z"
          stroke="#828282" stroke-width="1.33333" stroke-linecap="round" stroke-linejoin="round"/>
</svg>
